<svg xmlns="http://www.w3.org/2000/svg" width="381.633" height="190.191" viewBox="0 0 381.633 190.191">
  <g id="Icons" transform="translate(-351 -1189.809)">
    <path id="Vector_3_" data-name="Vector (3)" d="M382.1,149.308H254.725c-2.7-31.371-10.745-61.986-28.563-77.7a53.376,53.376,0,0,0-13.715-8.639,50.9,50.9,0,0,1-46.49,29.859c-.593,0-1.187,0-1.781-.054A50.962,50.962,0,0,1,132.535,80.3a51.691,51.691,0,0,1-7.883-8.585c-.27-.378-.539-.81-.81-1.188l-1.458,2.538-2.7,4.59L90.419,127.387a4.62,4.62,0,0,1-4.05,2.322,4.7,4.7,0,0,1-4.05-7.02l22.839-38.876,3.943-6.749c3.185-5.723,6.262-11.285,9.233-16.63,1.026-1.836,2.052-3.672,3.078-5.453.755-1.4,1.565-2.754,2.322-4.1.432-.7.648-1.4,1.026-2.106a41.94,41.94,0,0,0,39.685,34.664H165.9a41.563,41.563,0,0,0,37.634-23.757,42.075,42.075,0,0,0,4.049-16.522A41.687,41.687,0,0,0,167.361.013h-1.512a41.485,41.485,0,0,0-40.712,32.828,12.021,12.021,0,0,0-3.887-3.672,13.689,13.689,0,0,0-4.427-1.674,17.413,17.413,0,0,0-17.765,8.045s-39.956,64.2-49.3,79.048c-8.693,13.823-5.615,28.293,1.35,34.719H.464v15.28H381.99v-15.28Zm-290.113,0c12.041-10.691,20.356-18.628,28.725-26.619.27,10.691.594,20.3.81,26.619Z" transform="translate(350.536 1215.412)"/>
    <path id="Vector" d="M.15,18.8,16.295,34.56c9.272-9.436,16.69-11.782,21.272-11.782,7.418-.164,12.818,6.327,13.2,13.963a1.946,1.946,0,0,0-.054.382c-.164,4.418-1.309,5.891-6,10.09-4.472,3.873-12,7.8-18.217,15.927a42.21,42.21,0,0,0-8.509,25.526c0,2.127.164,3.927.273,5.181a10.083,10.083,0,0,1,.163,1.418l2.182-.218H41c-.164-3.491-.491-3.982-.491-6.382A19.5,19.5,0,0,1,44.6,76.612c2.018-3,7.745-6.654,14.454-11.945,6.545-5.018,14.508-14.4,14.29-27.49l.055-.491C73.183,18.2,58.947.361,37.621.252,25.131.252,12.2,6.415.15,18.8Z" transform="translate(638.85 1189.558)"/>
    <g id="Group_138" data-name="Group 138" transform="translate(320.719 -263.75)">
      <path id="Path_183" data-name="Path 183" d="M323.388,1602.289l-5.841-18.254,9.784-15.625,9.345-5.4,12.7-2.337,8.469,3.213s5.549,13.289,5.549,13.726-2.336,22.05-2.336,22.05l-3.213,7.009-22.342,4.82Z" transform="translate(4.564 5.607)" fill="#fff"/>
      <path id="Vector-2" data-name="Vector" d="M31.027,62.973A31,31,0,1,0,.014,31.959,31.045,31.045,0,0,0,31.027,62.973Zm2.492-10.3a18.559,18.559,0,0,1-15.064-7.033,16.9,16.9,0,0,1-3.434-8.03H11.035V33.233h3.323V32.181c0-.609.056-1.218.056-1.883H10.979V25.923h4.1A19.352,19.352,0,0,1,19.4,17.5,18.824,18.824,0,0,1,33.63,11.191a23.373,23.373,0,0,1,9.3,1.883l-1.717,7.033a18.676,18.676,0,0,0-6.868-1.44,9.272,9.272,0,0,0-7.587,3.323,11.167,11.167,0,0,0-1.938,3.987h15.4v4.375H23.772c-.055.665-.055,1.329-.055,1.883v1H40.11v4.375H24.6a9.792,9.792,0,0,0,1.994,4.32,10.434,10.434,0,0,0,7.975,3.1A16.663,16.663,0,0,0,41.6,43.423l1.551,6.867A20.5,20.5,0,0,1,33.52,52.672Z" transform="translate(316.986 1559.11)"/>
    </g>
  </g>
</svg>
